Coordinates
version=1
nRows=19
nColumns=24
inDegrees=yes

Units are S.I. units (second, meters, Newtons, ...)
Angles are in degrees.

endheader
time	pelvis_tilt	pelvis_list	pelvis_rotation	pelvis_tx	pelvis_ty	pelvis_tz	hip_flexion_r	hip_adduction_r	hip_rotation_r	knee_angle_r	ankle_angle_r	subtalar_angle_r	mtp_angle_r	hip_flexion_l	hip_adduction_l	hip_rotation_l	knee_angle_l	ankle_angle_l	subtalar_angle_l	mtp_angle_l	lumbar_extension	lumbar_bending	lumbar_rotation
      1.71233333	      9.48843163	     -0.14341320	     -5.89191601	      1.34658589	      1.03633804	      0.29451028	     12.46491739	     -3.44696476	     -5.93455754	    -68.93720022	      0.81630359	    -10.36023476	     -0.83832282	     -2.12773599	      2.55601395	     -1.39883285	    -11.54869812	     -2.06095034	    -24.40767350	     -8.88178033	    -18.75343669	     -3.75955306	      0.84357879
      1.71650000	      9.57657929	     -0.34633593	     -5.52713807	      1.35150597	      1.03732812	      0.29356173	     12.81348211	     -3.26781699	     -6.37654460	    -68.33799006	      1.22999190	    -10.35307074	     -0.85212919	     -2.68900322	      2.39144165	     -1.11685810	    -11.22295763	     -2.02667508	    -24.38304045	     -8.85708572	    -18.90834173	     -3.34758237	      0.66126784
      1.72066667	      9.72129457	     -0.53990672	     -5.14783941	      1.35636287	      1.03836472	      0.29258250	     13.08650526	     -3.11877580	     -6.84450796	    -67.69298082	      1.64219283	    -10.43072694	     -0.88775986	     -3.31076493	      2.23717519	     -0.81026822	    -10.88038731	     -2.02676606	    -24.36865819	     -8.82398651	    -19.14228746	     -2.95584518	      0.36878924
      1.72483333	      9.76647422	     -0.72863384	     -4.79987228	      1.36121687	      1.03920029	      0.29170469	     13.47149589	     -2.95548064	     -7.26640055	    -67.02567034	      2.02282341	    -10.42059553	     -0.92452724	     -3.80624870	      2.06812354	     -0.53626429	    -10.57328702	     -1.99217738	    -24.33601763	     -8.79591439	    -19.25222141	     -2.56767247	      0.16851599
      1.72900000	      9.86375130	     -0.90276345	     -4.44712309	      1.36603831	      1.04006728	      0.29081358	     13.78599147	     -2.82693825	     -7.70298890	    -66.32009095	      2.43247087	    -10.42269757	     -0.97615035	     -4.35932648	      1.91506089	     -0.26011185	    -10.25604236	     -1.97796109	    -24.32505256	     -8.76475893	    -19.41841886	     -2.19453136	     -0.06980708
      1.73316667	      9.99734904	     -1.07002476	     -4.07191345	      1.37082275	      1.04095096	      0.28988961	     14.04156970	     -2.72138929	     -8.16616812	    -65.56660884	      2.81889973	    -10.48415247	     -1.06116722	     -4.94409146	      1.76383797	      0.04061771	     -9.93054647	     -1.97265287	    -24.29948296	     -8.71590405	    -19.63840760	     -1.82435338	     -0.34533095
      1.73733333	     10.06433142	     -1.23088315	     -3.73741964	      1.37559140	      1.04168070	      0.28906062	     14.36663911	     -2.61098574	     -8.58323881	    -64.78882978	      3.20791266	    -10.46354152	     -1.15205191	     -5.44484308	      1.60844414	      0.29973603	     -9.64159039	     -1.93789099	    -24.27497369	     -8.66826077	    -19.77151051	     -1.46250646	     -0.52947453
      1.74150000	     10.10098663	     -1.38365423	     -3.46804387	      1.38043141	      1.04232279	      0.28840358	     14.72378444	     -2.48711623	     -8.92717232	    -63.98009879	      3.55762119	    -10.39439026	     -1.22497116	     -5.92713405	      1.45370818	      0.47898559	     -9.33555748	     -1.89502437	    -24.22993950	     -8.62877645	    -19.84717916	     -1.14162178	     -0.66361168
      1.74566667	     10.19808143	     -1.52922858	     -3.11770409	      1.38514013	      1.04302335	      0.28758322	     14.98239746	     -2.40791823	     -9.35957385	    -63.11596445	      3.94834548	    -10.38540171	     -1.33858402	     -6.44742201	      1.30207711	      0.74330716	     -9.05314505	     -1.86743853	    -24.19219236	     -8.57120141	    -20.01702868	     -0.80358821	     -0.88865120
      1.74983333	     10.20063526	     -1.65583940	     -2.87381936	      1.38990696	      1.04352038	      0.28700830	     15.36055361	     -2.30937677	     -9.66774456	    -62.24334470	      4.28287114	    -10.29303391	     -1.42485571	     -6.87739975	      1.16515415	      0.92108446	     -8.76109411	     -1.82867351	    -24.15681897	     -8.52891843	    -20.05658675	     -0.51758420	     -0.98397091
      1.75400000	     10.27051378	     -1.77160073	     -2.56672888	      1.39461507	      1.04406547	      0.28630870	     15.63465105	     -2.25533055	    -10.04916620	    -61.32894866	      4.65408307	    -10.25956136	     -1.55451972	     -7.35356039	      1.03461124	      1.13272891	     -8.50378196	     -1.78204015	    -24.10933169	     -8.46174042	    -20.18927263	     -0.22079173	     -1.18033288
      1.75816667	     10.30767918	     -1.89176620	     -2.32128371	      1.39934552	      1.04454075	      0.28576284	     15.93454448	     -2.17225102	    -10.35948140	    -60.36819883	      4.99159411	    -10.17270810	     -1.68720738	     -7.81287909	      0.89532092	      1.28905866	     -8.22050194	     -1.73502837	    -24.04923582	     -8.39546528	    -20.27319313	      0.05840391	     -1.29650403
      1.76233333	     10.28767992	     -1.98284861	     -2.09729897	      1.40403078	      1.04485589	      0.28528848	     16.30101863	     -2.11218019	    -10.63527684	    -59.39864754	      5.29701279	    -10.06737916	     -1.79146294	     -8.19001831	      0.78180421	      1.43505845	     -7.97494138	     -1.66533789	    -23.98531091	     -8.33971063	    -20.29573775	      0.28998165	     -1.37110568
      1.76650000	     10.21728143	     -2.03769311	     -1.96263670	      1.40875706	      1.04502701	      0.28504786	     16.73105676	     -2.05414708	    -10.80884794	    -58.42930725	      5.66485307	    -10.00749263	     -1.82911528	     -8.51632365	      0.70667836	      1.46338015	     -7.73249422	     -1.63371474	    -23.93816741	     -8.31923399	    -20.24545139	      0.45449051	     -1.39835738
      1.77066667	     10.28832692	     -2.13199455	     -1.65714988	      1.41341630	      1.04542107	      0.28439375	     16.93670512	     -2.03512649	    -11.17574288	    -57.35056608	      5.92853814	     -9.90843889	     -1.98328441	     -8.97498899	      0.57993562	      1.67724431	     -7.50553119	     -1.49308662	    -23.79736581	     -8.23602994	    -20.37352505	      0.73351674	     -1.58722044
      1.77483333	     10.18133208	     -2.16044166	     -1.55024897	      1.41810006	      1.04545162	      0.28424019	     17.38436790	     -1.99591073	    -11.30353538	    -56.31678423	      6.21940541	     -9.82263927	     -2.01934268	     -9.25889141	      0.53031483	      1.70386446	     -7.26262820	     -1.45353891	    -23.75778942	     -8.21574919	    -20.29146170	      0.85336666	     -1.58769685
      1.77900000	     10.22932191	     -2.23787174	     -1.29566432	      1.42278868	      1.04572661	      0.28373462	     17.58520051	     -1.97581416	    -11.61275476	    -55.17206506	      6.46607345	     -9.72795381	     -2.17300731	     -9.68820839	      0.41661466	      1.85239021	     -7.05270102	     -1.29183121	    -23.59835144	     -8.13405427	    -20.38721584	      1.09079946	     -1.70348544
      1.78316667	     10.15621473	     -2.26550635	     -1.13982490	      1.42745520	      1.04574295	      0.28347026	     17.94413093	     -1.96608757	    -11.79665982	    -54.04069557	      6.68591356	     -9.62164478	     -2.28307864	     -9.99816607	      0.36123166	      1.93570203	     -6.82537111	     -1.19649217	    -23.52471102	     -8.07240943	    -20.34794239	      1.23139494	     -1.73631420
      1.78733333	     10.11949779	     -2.28227055	     -0.98462117	      1.43212175	      1.04575745	      0.28322519	     18.24431122	     -1.96686609	    -11.97334928	    -52.88002256	      6.92001085	     -9.53689047	     -2.39050829	    -10.33670346	      0.31535377	      1.99762325	     -6.62491833	     -1.07086632	    -23.41483444	     -8.01327743	    -20.34171897	      1.36199584	     -1.78066522
